<svg width="317" height="44" viewBox="0 0 317 44" fill="none" xmlns="http://www.w3.org/2000/svg">
<path d="M72.199 34.341V0.204468H89.0628C91.4067 0.204468 93.4832 0.660671 95.308 1.58881C97.1328 2.51695 98.5486 3.8069 99.5712 5.44294C100.594 7.07898 101.333 8.98244 101.333 11.1061C101.333 16.5177 99.4453 19.2234 95.9058 21.5044L102.183 34.341H93.5147L88.2605 22.7315H80.0016V34.341H72.199ZM80.0016 15.8884C81.9995 15.8884 83.9973 15.8884 85.9795 15.8884C88.3077 15.8884 90.9348 16.0615 92.3191 13.8906C93.3416 12.2703 92.9484 9.70608 91.5011 8.46332C89.8808 7.06325 87.1121 7.26775 85.0985 7.26775C84.5951 7.26775 80.6309 7.26775 79.9859 7.34641V15.8727L80.0016 15.8884Z" fill="#003952"/>
<path d="M104.747 34.3411V1.82481L112.046 0V13.0097C113.698 11.5781 115.648 10.8702 117.914 10.8702C119.628 10.8702 121.123 11.295 122.444 12.1287C123.75 12.9625 124.772 14.1266 125.527 15.6053C126.283 17.084 126.644 18.8144 126.644 20.7651V34.3254H119.644V21.7876C119.644 20.419 119.282 19.3493 118.574 18.5313C117.851 17.729 117.206 17.32 115.994 17.32C115.145 17.32 114.39 17.493 113.745 17.8234C113.1 18.1695 112.534 18.6414 112.077 19.2706V34.3254H104.778L104.747 34.3411Z" fill="#003952"/>
<path d="M130.97 44C129.979 44 129.004 43.8742 128.06 43.6382C127.824 43.5753 125.48 42.8988 125.527 42.6786L127.919 36.8266C127.919 36.8266 129.098 37.2199 129.209 37.2514C130.797 37.5975 132.78 37.3143 133.975 36.1187C134.463 35.6311 134.793 35.0175 135.045 34.3883L126.424 11.3579H133.849L139.277 26.8216L145.6 11.3579H152.947L142.722 35.1119C141.447 38.148 139.701 41.1055 136.697 42.6786C134.95 43.591 132.953 44.0315 130.97 44.0158V44Z" fill="#003952"/>
<path d="M154.315 34.3411V11.3422H161.615V12.9153C163.125 11.5467 164.918 10.8702 166.979 10.8702C168.332 10.8702 169.559 11.1691 170.644 11.7512C171.73 12.3332 173.036 13.1827 173.775 14.2524C174.64 13.167 175.678 12.3332 176.858 11.7512C178.054 11.1691 179.344 10.8702 180.76 10.8702C182.38 10.8702 184.236 11.295 185.479 12.1287C186.722 12.9625 187.713 14.1266 188.421 15.6053C189.129 17.084 189.49 18.8145 189.49 20.7651V34.3254H182.49V21.7877C182.49 20.419 182.175 19.3493 181.53 18.5313C180.885 17.729 180.052 17.32 178.998 17.32C178.274 17.32 177.598 17.4773 177 17.7919C176.402 18.1066 175.883 18.5628 175.458 19.192C175.49 19.4437 175.505 19.6954 175.521 19.9628C175.521 20.2303 175.537 20.4977 175.537 20.7809V34.3411H168.552V21.8034C168.552 20.4348 168.238 19.3651 167.593 18.547C166.963 17.7447 166.114 17.3357 165.06 17.3357C164.336 17.3357 163.676 17.4773 163.093 17.7762C162.511 18.0751 162.024 18.5156 161.615 19.0976V34.3411H154.315Z" fill="#003952"/>
<path d="M218.294 34.3412V28.6937L232.704 9.1556H219.301V1.88782H242.158V7.5353L227.796 27.0734H240.176L244.361 34.3254H218.294V34.3412Z" fill="#416372"/>
<path d="M208.934 34.1051C206.606 34.9231 204.309 35.1276 202.06 34.7343C199.81 34.341 197.828 33.4444 196.113 32.0443C194.398 30.6442 193.156 28.8351 192.369 26.617C191.583 24.3989 191.425 22.2123 191.85 20.0729C192.275 17.9177 193.219 15.9985 194.666 14.3153C196.113 12.6321 197.938 11.405 200.156 10.6342C202.374 9.86337 204.577 9.69033 206.684 10.178C208.792 10.6499 210.664 11.6567 212.316 13.1826C213.968 14.7086 215.431 16.7851 216.06 19.0976C216.438 20.4347 216.454 20.8909 216.454 20.8909L200.376 26.5069C200.943 27.1204 201.588 27.6081 202.311 27.9699C203.035 28.3317 203.821 28.5362 204.671 28.5677C205.52 28.6149 206.386 28.4733 207.251 28.1744C208.745 27.6553 210.602 26.4755 211.467 25.1068C211.467 25.1068 216.422 28.5048 216.422 28.5205C215.777 29.606 214.582 30.833 213.984 31.3049C212.316 32.6106 211.136 33.3657 208.934 34.1365V34.1051ZM198.536 21.6617L208.085 18.3267C207.597 17.666 207.015 17.1469 206.354 16.7693C205.693 16.4075 204.986 16.1716 204.262 16.0929C203.523 16.0142 202.783 16.0929 202.028 16.3603C201.273 16.6278 200.597 17.021 200.062 17.5244C199.527 18.0278 199.134 18.6256 198.866 19.3178C198.599 20.01 198.504 20.7808 198.536 21.6303V21.6617Z" fill="#003952"/>
<path d="M309.582 34.1994C307.301 35.0017 305.067 35.2062 302.865 34.8129C300.662 34.4354 298.727 33.5544 297.044 32.1858C295.361 30.8172 294.15 29.0396 293.395 26.8844C292.639 24.7293 292.466 22.5898 292.891 20.4819C293.316 18.3739 294.228 16.5019 295.644 14.8501C297.06 13.1984 298.853 12.0028 301.008 11.2477C303.164 10.4926 305.334 10.3353 307.38 10.7915C309.44 11.2634 311.265 12.2388 312.885 13.7175C314.49 15.2119 315.937 17.2413 316.535 19.4908C316.897 20.7965 316.928 21.2527 316.928 21.2527L301.213 26.7429C301.764 27.3407 302.393 27.8126 303.101 28.1587C303.809 28.5048 304.579 28.7093 305.413 28.7407C306.247 28.7879 307.081 28.6463 307.93 28.3632C309.393 27.8598 311.218 26.7114 312.052 25.3585L316.897 28.6935C316.268 29.7475 315.104 30.9588 314.521 31.415C312.901 32.6892 311.737 33.4286 309.582 34.1837V34.1994ZM299.404 22.0393L308.732 18.7829C308.245 18.1379 307.694 17.6188 307.049 17.2727C306.404 16.9109 305.712 16.6907 305.004 16.612C304.281 16.5334 303.557 16.612 302.818 16.8794C302.078 17.1469 301.417 17.5244 300.898 18.0278C300.379 18.5312 299.986 19.1133 299.734 19.7897C299.483 20.4661 299.372 21.2212 299.42 22.055L299.404 22.0393Z" fill="#416372"/>
<path d="M254.444 35.0961C252.179 35.0961 250.134 34.5455 248.309 33.46C246.484 32.3746 245.053 30.8958 243.983 29.0396C242.913 27.1833 242.394 25.1068 242.394 22.81C242.394 20.5133 242.929 18.421 243.983 16.5648C245.053 14.6928 246.484 13.214 248.309 12.1286C250.134 11.0431 252.179 10.4926 254.444 10.4926C256.71 10.4926 258.755 11.0431 260.579 12.1286C262.404 13.214 263.836 14.6928 264.905 16.5648C265.975 18.4368 266.494 20.5133 266.494 22.81C266.494 25.1068 265.959 27.1833 264.905 29.0396C263.836 30.8958 262.404 32.3588 260.579 33.46C258.755 34.5455 256.71 35.0961 254.444 35.0961ZM254.444 28.8193C255.451 28.8193 256.363 28.5519 257.15 28.017C257.937 27.4822 258.566 26.7586 259.038 25.8461C259.51 24.9337 259.73 23.9269 259.73 22.8258C259.73 21.7246 259.494 20.6706 259.038 19.7582C258.566 18.8458 257.937 18.1222 257.134 17.5873C256.332 17.0524 255.435 16.785 254.444 16.785C253.453 16.785 252.556 17.0524 251.754 17.5873C250.952 18.1222 250.307 18.8458 249.851 19.7582C249.379 20.6706 249.159 21.6931 249.159 22.8258C249.159 23.9584 249.395 24.9337 249.851 25.8461C250.323 26.7586 250.952 27.4822 251.754 28.017C252.556 28.5519 253.453 28.8193 254.444 28.8193Z" fill="#416372"/>
<path d="M268.649 34.3411V11.3422H275.933V13.0097C277.522 11.5781 279.409 10.8702 281.58 10.8702C283.232 10.8702 285.23 11.295 286.488 12.1287C287.747 12.9625 288.738 14.1266 289.446 15.6053C290.154 17.084 290.516 18.8145 290.516 20.7651V34.3254H283.515V21.7877C283.515 20.419 283.169 19.3493 282.477 18.5313C281.785 17.729 280.857 17.32 279.693 17.32C278.875 17.32 278.151 17.493 277.522 17.8234C276.893 18.1695 276.358 18.6414 275.917 19.2707V34.3254H268.634L268.649 34.3411Z" fill="#416372"/>
<path d="M33.4689 27.5138C38.9858 27.5138 43.4581 23.0415 43.4581 17.5246C43.4581 12.0076 38.9858 7.53528 33.4689 7.53528C27.9519 7.53528 23.4796 12.0076 23.4796 17.5246C23.4796 23.0415 27.9519 27.5138 33.4689 27.5138Z" fill="#00ABE7"/>
<path d="M55.1307 28.2373C60.6476 28.2373 65.12 23.765 65.12 18.2481C65.12 12.7311 60.6476 8.25879 55.1307 8.25879C49.6138 8.25879 45.1414 12.7311 45.1414 18.2481C45.1414 23.765 49.6138 28.2373 55.1307 28.2373Z" fill="#F7941D"/>
<path d="M44.4021 35.0175C49.919 35.0175 54.3913 30.5451 54.3913 25.0282C54.3913 19.5113 49.919 15.0389 44.4021 15.0389C38.8851 15.0389 34.4128 19.5113 34.4128 25.0282C34.4128 30.5451 38.8851 35.0175 44.4021 35.0175Z" fill="#3AB54A"/>
<path d="M20.884 22.5428C26.4009 22.5428 30.8733 18.0704 30.8733 12.5535C30.8733 7.03656 26.4009 2.56421 20.884 2.56421C15.3671 2.56421 10.8947 7.03656 10.8947 12.5535C10.8947 18.0704 15.3671 22.5428 20.884 22.5428Z" fill="#EF5087"/>
<path d="M10.0767 29.0868C15.5936 29.0868 20.066 24.6145 20.066 19.0976C20.066 13.5806 15.5936 9.10828 10.0767 9.10828C4.55975 9.10828 0.0874023 13.5806 0.0874023 19.0976C0.0874023 24.6145 4.55975 29.0868 10.0767 29.0868Z" fill="#ED1C25"/>
</svg>
